<?xml version="1.0" encoding="UTF-8" standalone="no"?>
<!-- Created with Inkscape (http://www.inkscape.org/) -->

<svg
   xmlns:dc="http://purl.org/dc/elements/1.1/"
   xmlns:cc="http://creativecommons.org/ns#"
   xmlns:rdf="http://www.w3.org/1999/02/22-rdf-syntax-ns#"
   xmlns:svg="http://www.w3.org/2000/svg"
   xmlns="http://www.w3.org/2000/svg"
   xmlns:sodipodi="http://sodipodi.sourceforge.net/DTD/sodipodi-0.dtd"
   xmlns:inkscape="http://www.inkscape.org/namespaces/inkscape"
   width="453.5433"
   height="340.15747"
   id="svg2"
   sodipodi:version="0.32"
   inkscape:version="0.48.3.1 r9886"
   sodipodi:docname="expansion.svg"
   version="1.0">
  <defs
     id="defs4" />
  <sodipodi:namedview
     id="base"
     pagecolor="#ffffff"
     bordercolor="#666666"
     borderopacity="1.0"
     inkscape:pageopacity="0.0"
     inkscape:pageshadow="2"
     inkscape:zoom="1.540463"
     inkscape:cx="277.9375"
     inkscape:cy="196.04496"
     inkscape:document-units="mm"
     inkscape:current-layer="g4813"
     inkscape:window-width="1920"
     inkscape:window-height="1002"
     inkscape:window-x="0"
     inkscape:window-y="24"
     width="12.8cm"
     height="9.6cm"
     units="cm"
     showgrid="true"
     grid_units="mm"
     inkscape:object-paths="false"
     inkscape:grid-points="true"
     inkscape:grid-bbox="true"
     inkscape:guide-points="true"
     showguides="true"
     inkscape:guide-bbox="true"
     inkscape:window-maximized="1">
    <sodipodi:guide
       orientation="vertical"
       position="56.476527"
       id="guide3573" />
    <sodipodi:guide
       orientation="horizontal"
       position="11.035643"
       id="guide3579" />
    <sodipodi:guide
       orientation="horizontal"
       position="24.018753"
       id="guide3886" />
    <sodipodi:guide
       orientation="horizontal"
       position="285.62841"
       id="guide3988" />
    <sodipodi:guide
       orientation="horizontal"
       position="303.15561"
       id="guide4081" />
    <inkscape:grid
       id="GridFromPre046Settings"
       type="xygrid"
       originx="0px"
       originy="0px"
       spacingx="2mm"
       spacingy="2mm"
       color="#3f3fff"
       empcolor="#3f3fff"
       opacity="0.15"
       empopacity="0.38"
       empspacing="5" />
  </sodipodi:namedview>
  <metadata
     id="metadata7">
    <rdf:RDF>
      <cc:Work
         rdf:about="">
        <dc:format>image/svg+xml</dc:format>
        <dc:type
           rdf:resource="http://purl.org/dc/dcmitype/StillImage" />
        <dc:title />
      </cc:Work>
    </rdf:RDF>
  </metadata>
  <g
     inkscape:label="Layer 1"
     inkscape:groupmode="layer"
     id="layer1"
     transform="translate(4.149475e-6,-698.0315)">
    <text
       xml:space="preserve"
       style="font-size:14px;font-style:normal;font-variant:normal;font-weight:normal;font-stretch:normal;line-height:125%;letter-spacing:0px;word-spacing:0px;fill:#000000;fill-opacity:1;stroke:none;font-family:Monospace;-inkscape-font-specification:Monospace"
       x="36.262756"
       y="101.92493"
       id="text3839"
       sodipodi:linespacing="125%"
       transform="translate(-4.149475e-6,698.0315)"><tspan
         sodipodi:role="line"
         id="tspan3841" /></text>
    <rect
       style="fill:#ffffff;fill-rule:evenodd;stroke:#000000;stroke-width:0.20924135px;stroke-linecap:butt;stroke-linejoin:miter;stroke-opacity:1"
       id="rect2995"
       width="85.039391"
       height="57.086655"
       x="35.433041"
       y="775.59052" />
    <text
       xml:space="preserve"
       style="font-size:14px;font-style:normal;font-variant:normal;font-weight:normal;font-stretch:normal;line-height:125%;letter-spacing:0px;word-spacing:0px;fill:#000000;fill-opacity:1;stroke:none;font-family:Monospace;-inkscape-font-specification:Monospace"
       x="42.519684"
       y="768.89764"
       id="text3973"
       sodipodi:linespacing="125%"><tspan
         sodipodi:role="line"
         id="tspan3975"
         x="42.519684"
         y="768.89764"
         style="font-size:11px;font-style:normal;font-variant:normal;font-weight:normal;font-stretch:normal;font-family:Arial;-inkscape-font-specification:Arial">Stage 1: Sync</tspan></text>
    <text
       xml:space="preserve"
       style="font-size:12px;font-style:normal;font-variant:normal;font-weight:bold;font-stretch:normal;text-align:start;line-height:125%;letter-spacing:0px;word-spacing:0px;writing-mode:lr-tb;text-anchor:start;fill:#000000;fill-opacity:1;stroke:none;font-family:Monospace;-inkscape-font-specification:Monospace Bold"
       x="49.606297"
       y="790.15747"
       id="text3041"
       sodipodi:linespacing="125%"><tspan
         sodipodi:role="line"
         id="tspan3043"
         x="49.606297"
         y="790.15747"
         style="font-size:12px;font-style:normal;font-variant:normal;font-weight:bold;font-stretch:normal;text-align:start;line-height:125%;writing-mode:lr-tb;text-anchor:start;font-family:Monospace;-inkscape-font-specification:Monospace Bold">Includes, </tspan><tspan
         sodipodi:role="line"
         x="49.606297"
         y="805.15747"
         style="font-size:12px;font-style:normal;font-variant:normal;font-weight:bold;font-stretch:normal;text-align:start;line-height:125%;writing-mode:lr-tb;text-anchor:start;font-family:Monospace;-inkscape-font-specification:Monospace Bold"
         id="tspan3864">Behavior </tspan><tspan
         sodipodi:role="line"
         x="49.606297"
         y="820.15747"
         style="font-size:12px;font-style:normal;font-variant:normal;font-weight:bold;font-stretch:normal;text-align:start;line-height:125%;writing-mode:lr-tb;text-anchor:start;font-family:Monospace;-inkscape-font-specification:Monospace Bold"
         id="tspan3866">Switches</tspan></text>
    <g
       id="g3912"
       transform="matrix(0.34199264,0,0,0.36412201,137.22976,529.86602)">
      <path
         transform="translate(-4.149475e-6,698.0315)"
         inkscape:connector-curvature="0"
         d="m 206.48085,164.78861 c 1.04394,-1.7907 2.33747,-3.39839 3.80433,-4.85489 1.17219,-1.18002 2.29719,-2.40909 3.56684,-3.48708 0.77344,-0.48608 1.25218,-1.21111 1.77317,-1.93955 0.47361,-0.79077 1.16524,-1.39898 1.76494,-2.08305 0.16832,-0.0712 0.15516,-0.32423 0.24356,-0.43284 0.1,-0.12287 0.24616,-0.20089 0.35498,-0.31603 0.31596,-0.33431 0.59504,-0.74454 0.86391,-1.11322 1.78305,-2.30095 4.95002,-6.31316 7.92137,-5.32352 0.97495,1.18338 2.0485,2.28474 3.11972,3.38459 2.33072,2.32212 5.17928,4.01056 7.82772,5.93295 1.46544,1.00564 2.89745,2.06689 4.21648,3.25979 0.38002,0.32632 0.72882,0.59789 1.20064,0.771 0,0 -5.70663,3.78767 -5.70663,3.78767 l 0,0 c -0.48749,-0.25609 -0.89575,-0.60136 -1.30178,-0.97108 -1.25201,-1.20156 -2.61894,-2.27718 -4.03543,-3.2779 -2.67327,-1.95817 -5.54392,-3.68397 -7.93974,-5.99145 -0.73765,-0.73965 -1.47808,-1.47679 -2.20896,-2.22316 -0.22227,-0.22697 -0.38286,-0.53509 -0.66331,-0.68431 -0.0241,-0.0128 -0.0201,0.0507 -0.0301,0.0761 -1.53679,1.75114 -0.0526,0.0322 5.427,-3.15285 0.12533,-0.0728 -0.23929,0.16549 -0.34538,0.26428 -0.46695,0.43479 -0.83146,0.97788 -1.25868,1.44803 -0.28338,0.40753 -0.70084,1.23578 -1.07616,1.55173 -0.037,0.0311 -0.10184,-0.0422 -0.14391,-0.0183 -0.10565,0.0599 -0.0329,0.28689 -0.17331,0.32042 -0.51643,0.78108 -1.33219,1.28484 -1.82578,2.09189 -0.54067,0.7443 -0.90269,1.57962 -1.66864,2.1205 -1.4046,0.91945 -2.48753,2.25448 -3.66618,3.43015 -1.45469,1.40232 -2.82631,2.87557 -3.82503,4.65047 0,0 -6.21566,2.77969 -6.21566,2.77969 z"
         id="path3904"
         style="fill:#000000;stroke:#000000" />
      <path
         transform="translate(-4.149475e-6,698.0315)"
         inkscape:connector-curvature="0"
         d="m 226.61552,151.44961 c 0.1796,4.48085 0.17651,8.96636 0.22923,13.44991 0.0107,5.23131 0.17278,10.4588 0.3576,15.68621 -0.005,2.83374 0.36276,5.6441 0.51218,8.46828 0.0953,2.12561 0.18567,4.25177 0.22088,6.37935 -0.005,1.54097 -0.009,3.08177 0.01,4.62266 0,0 -6.04212,3.0781 -6.04212,3.0781 l 0,0 c 0.0206,-1.53898 0.0204,-3.07797 -0.004,-4.61694 -0.0107,-2.12711 -0.0245,-4.25521 -0.14714,-6.37951 -0.19534,-2.84958 -0.44842,-5.69374 -0.3896,-8.55472 -0.12286,-5.24209 -0.34721,-10.48222 -0.30476,-15.72672 -0.0456,-4.42262 -0.078,-8.85533 -0.47572,-13.26314 0,0 6.03356,-3.14348 6.03356,-3.14348 z"
         id="path3906"
         style="fill:#000000;stroke:#000000" />
      <path
         transform="translate(-4.149475e-6,698.0315)"
         inkscape:connector-curvature="0"
         d="m 212.72849,192.74731 c 2.53656,1.806 5.10284,3.57421 7.70266,5.28863 1.93866,1.31792 3.80465,2.73327 5.67765,4.14046 0.61856,0.15047 1.23282,1.26717 1.73345,1.52127 0.28605,0.046 0.40603,0.34352 0.5143,0.58975 0.0536,0.20051 0.0679,0.45782 0.16102,0.55897 -1.04644,-2.37413 0.0666,-0.1602 -5.86736,2.95493 -0.10881,0.0571 0.0551,-0.24054 0.10073,-0.35463 0.15054,-0.37614 0.31738,-0.70545 0.68593,-0.92792 2.12624,-1.28347 4.3037,-2.4801 6.45556,-3.72015 1.14159,-0.60999 2.43057,-0.87181 3.5281,-1.55734 -10.25579,6.57533 -5.65971,3.24106 -3.42517,1.5596 0.92722,-0.79183 1.84306,-1.59701 2.72909,-2.43493 0.87345,-0.82363 1.82323,-1.55861 2.73795,-2.33472 0.86603,-0.73729 1.70326,-1.50695 2.53897,-2.27806 4.31106,-6.94625 7.88317,-2.93408 5.7268,-1.69019 -2.12164,1.22387 -4.2659,2.40812 -6.39885,3.61218 -1.08951,0.36338 -2.12547,0.84993 -3.23401,1.16128 -0.90796,0.33895 -1.9182,0.47375 -2.76417,0.95633 -2.13162,1.04661 -4.81386,2.69239 5.00478,-2.91748 0.0609,-0.0348 -0.12194,0.0708 -0.17567,0.11592 -0.243,0.20401 -0.4663,0.4305 -0.70454,0.64006 -0.83798,0.67951 -1.6777,1.34887 -2.41762,2.13678 -0.51189,0.89374 -1.14127,1.68733 -1.7974,2.48411 -2.05224,2.66698 -3.63542,2.8267 -7.42982,5.00026 -0.67466,0.15733 -0.84823,-0.58269 -0.95792,-1.1124 -0.0767,-0.49668 -0.0726,-1.0001 -0.0759,-1.50115 0.0174,-0.44488 -0.0428,-0.89665 0.0655,-1.33195 0.94797,-2.32593 4.93937,-3.0305 6.45262,-3.86458 0.2503,-0.13796 0.52957,-0.23993 0.80563,-0.30725 1.09719,-0.10382 2.15273,-0.41348 3.2206,-0.66847 0.75382,-0.10876 1.36082,-0.59211 2.10558,-0.71595 2.14147,-1.02208 5.1651,-2.90843 -4.76104,2.7756 -0.20015,0.11462 0.39261,-0.24279 0.58067,-0.37633 0.54875,-0.39191 1.07191,-0.82069 1.60281,-1.23957 0.44046,-0.39802 0.86973,-0.8072 1.3184,-1.19817 0.40527,-0.40009 0.77837,-0.84215 1.12434,-1.29617 0.54299,-0.76383 1.077,-1.53517 1.73326,-2.20724 1.86193,-1.65594 5.92447,-5.67461 7.05903,-2.92314 0.0373,0.18619 0.12452,0.41707 0.0109,0.60599 -0.0345,0.0574 -0.11908,0.0616 -0.17712,0.095 -2.02762,1.16929 -4.06849,2.31606 -6.0798,3.5132 -1.7793,1.05905 7.06503,-4.30211 5.39827,-3.07352 -0.88009,0.61543 -1.76926,1.21646 -2.66165,1.81459 -0.57132,0.40512 -1.18713,0.73771 -1.73376,1.17678 -0.57939,0.55592 -1.2621,0.99116 -1.90919,1.46422 -0.32205,0.33789 -0.77693,0.59728 -1.06114,0.96715 -0.0152,0.17384 -0.0908,0.30507 -0.18558,0.44395 0,0 -6.37292,2.56753 -6.37292,2.56753 l 0,0 c 0.11054,-0.0412 0.21837,-0.0908 0.33472,-0.11412 0.11131,-0.64323 0.50242,-0.8694 0.96062,-1.32059 0.58506,-0.52606 1.28072,-0.91951 1.88307,-1.41102 0.51762,-0.53124 1.11491,-0.92173 1.75227,-1.29389 0.87972,-0.59206 1.78825,-1.14239 2.61604,-1.80613 2.0744,-1.18785 5.34441,-3.05912 6.31967,-3.70813 1.8123,-1.20602 -3.75793,2.19866 -5.64569,3.28278 -0.0591,0.0339 0.089,-0.12971 0.1571,-0.13074 0.042,-6.4e-4 0.31821,0.19006 0.37325,0.22695 -3e-5,-0.0517 -0.0889,-0.12343 -0.0438,-0.14877 10.44346,-5.87118 7.30307,-4.25416 5.32782,-2.81527 -0.70816,0.58137 -1.29413,1.27851 -1.76483,2.06753 -0.34171,0.505 -0.75147,0.92104 -1.08144,1.43225 -0.43414,0.41773 -0.94552,0.75859 -1.30834,1.24145 -0.53147,0.4353 -1.10497,0.80489 -1.57494,1.30605 -0.10112,0.0586 -0.20225,0.11713 -0.30337,0.17569 -0.0873,0.0751 -0.16267,0.16708 -0.26206,0.22533 -1.29698,0.76015 -4.59441,3.16511 -7.05522,3.85202 -0.68058,0.27141 -1.35355,0.55924 -2.0852,0.67342 -1.07057,0.25986 -2.16263,0.4414 -3.21873,0.74665 -3.74543,1.69387 7.40023,-3.33342 4.40106,-2.86412 -0.34411,0.3423 -0.17609,0.57752 -0.209,1.05086 -0.006,0.46559 -0.011,0.93211 0.0214,1.3969 0.0874,0.70032 -9.3e-4,0.20856 1e-5,0.20735 0.0631,-0.0815 0.23262,-0.0249 0.27544,-0.14086 -1.89135,1.09982 -3.7827,2.19964 -5.67405,3.29946 0.27046,-0.15406 0.55238,-0.32247 0.7746,-0.54355 0.25939,-0.25806 0.4461,-0.58333 0.7085,-0.83842 0.64914,-0.77971 1.41302,-1.48752 1.76671,-2.44375 0.59326,-0.92989 1.52796,-1.60024 2.39187,-2.26187 0.22077,-0.20302 0.46483,-0.38091 0.67538,-0.59451 0.0587,-0.0595 0.0762,-0.15923 0.14769,-0.20251 2.28813,-1.38589 4.33612,-2.81618 6.70911,-3.85572 0.93506,-0.31215 1.87974,-0.59676 2.82035,-0.89153 1.0718,-0.34905 2.10493,-0.80633 3.15465,-1.21479 -15.7695,9.2623 3.69542,-2.20218 1.64231,-0.3671 -0.64354,0.97243 -1.78231,1.56333 -2.5673,2.41121 -0.89508,0.78087 -1.81054,1.53526 -2.71689,2.30262 -0.91357,0.81373 -1.78916,1.66888 -2.71155,2.47447 -2.45063,2.11496 -5.57035,3.522 -8.2056,5.26153 -1.15207,0.53413 -2.39003,0.87969 -3.49386,1.52399 1.72081,-1.01003 3.45237,-2.00195 5.16242,-3.03009 0.1638,-0.0985 -0.3577,0.14013 -0.52098,0.23949 -0.11682,0.0711 -0.20763,0.17803 -0.31144,0.26705 -0.0366,0.10688 -0.0176,0.25551 -0.10992,0.32065 -5.83812,4.11895 -4.23105,5.5634 -6.15597,3.6029 -0.16977,-0.22235 -0.41556,-0.52711 -0.32127,-0.8241 -0.0437,-0.17827 -0.1669,-0.12664 -0.321,-0.28882 -0.52952,-0.53667 -0.98578,-1.14957 -1.64513,-1.55048 -1.81495,-1.43744 -3.66688,-2.82533 -5.55884,-4.16085 -2.60211,-1.75245 -5.18556,-3.53161 -7.82421,-5.22926 0,0 5.73055,-3.65087 5.73055,-3.65087 z"
         id="path3908"
         style="fill:#000000;stroke:#000000" />
      <path
         transform="translate(-4.149475e-6,698.0315)"
         inkscape:connector-curvature="0"
         d="m 222.20592,150.41346 c 1.24785,0.0221 2.49579,-10e-6 3.74369,0.001 0.81685,-0.005 1.63372,-0.001 2.45056,-0.009 0.0741,0.031 0.41994,0.15867 0.48813,0.24565 1.46572,1.86966 -3.75675,2.93187 -5.80683,4.13234 -0.11791,0.0691 -0.27325,0.006 -0.4097,0.0135 -0.14161,0.008 -0.28286,0.0208 -0.42429,0.0311 -0.14728,0.007 -0.29456,0.0149 -0.44184,0.0223 0,0 5.49339,-4.05205 5.49339,-4.05205 l 0,0 c 0.14374,-0.0136 0.28748,-0.0272 0.43122,-0.0408 2.6396,-0.3549 3.15462,-2.23154 -4.74471,3.45162 -0.0812,0.0584 0.15965,0.1387 0.1863,0.23506 0.0275,0.0994 -0.38415,-0.2121 -0.30893,-0.0157 -0.8087,-0.008 -1.61744,-0.003 -2.42615,-0.009 -1.24905,0.001 -2.49814,-0.0208 -3.74714,0.001 0,0 5.5163,-4.00783 5.5163,-4.00783 z"
         id="path3910"
         style="fill:#000000;stroke:#000000" />
    </g>
    <g
       id="g4813"
       transform="translate(-14.173199,-2.5379091e-5)">
      <rect
         y="775.59052"
         x="170.07872"
         height="57.086655"
         width="120.47244"
         id="rect2995-4"
         style="fill:#ffffff;fill-rule:evenodd;stroke:#000000;stroke-width:0.249047px;stroke-linecap:butt;stroke-linejoin:miter;stroke-opacity:1" />
      <text
         sodipodi:linespacing="125%"
         id="text3973-3"
         y="768.89764"
         x="191.33858"
         style="font-size:14px;font-style:normal;font-variant:normal;font-weight:normal;font-stretch:normal;line-height:125%;letter-spacing:0px;word-spacing:0px;fill:#000000;fill-opacity:1;stroke:none;font-family:Monospace;-inkscape-font-specification:Monospace"
         xml:space="preserve"><tspan
           style="font-size:11px;font-style:normal;font-variant:normal;font-weight:bold;font-stretch:normal;font-family:Arial;-inkscape-font-specification:Arial Bold;fill:#0000ff"
           y="768.89764"
           x="191.33858"
           id="tspan3975-0"
           sodipodi:role="line">Stage 2: Async</tspan></text>
      <text
         sodipodi:linespacing="125%"
         id="text3041-5"
         y="790.15747"
         x="184.25197"
         style="font-size:12px;font-style:normal;font-variant:normal;font-weight:bold;font-stretch:normal;text-align:start;line-height:125%;letter-spacing:0px;word-spacing:0px;writing-mode:lr-tb;text-anchor:start;fill:#000000;fill-opacity:1;stroke:none;font-family:Monospace;-inkscape-font-specification:Monospace Bold"
         xml:space="preserve"><tspan
           style="font-size:12px;font-style:normal;font-variant:normal;font-weight:bold;font-stretch:normal;text-align:start;line-height:125%;writing-mode:lr-tb;text-anchor:start;font-family:Monospace;-inkscape-font-specification:Monospace Bold"
           y="790.15747"
           x="184.25197"
           id="tspan3043-2"
           sodipodi:role="line">  Templates,</tspan><tspan
           id="tspan3864-6"
           style="font-size:12px;font-style:normal;font-variant:normal;font-weight:bold;font-stretch:normal;text-align:start;line-height:125%;writing-mode:lr-tb;text-anchor:start;font-family:Monospace;-inkscape-font-specification:Monospace Bold"
           y="805.15747"
           x="184.25197"
           sodipodi:role="line"> Extensions,</tspan><tspan
           id="tspan3966"
           style="font-size:12px;font-style:normal;font-variant:normal;font-weight:bold;font-stretch:normal;text-align:start;line-height:125%;writing-mode:lr-tb;text-anchor:start;font-family:Monospace;-inkscape-font-specification:Monospace Bold"
           y="820.15747"
           x="184.25197"
           sodipodi:role="line">Links, Images</tspan></text>
    </g>
    <g
       id="g4822"
       transform="translate(-7.0865635,-2.5379091e-5)">
      <rect
         y="775.59052"
         x="318.89758"
         height="57.086655"
         width="106.29922"
         id="rect2995-0"
         style="fill:#ffffff;fill-rule:evenodd;stroke:#000000;stroke-width:0.23393892px;stroke-linecap:butt;stroke-linejoin:miter;stroke-opacity:1" />
      <text
         sodipodi:linespacing="125%"
         id="text3973-3-0"
         y="768.89764"
         x="333.07086"
         style="font-size:14px;font-style:normal;font-variant:normal;font-weight:normal;font-stretch:normal;line-height:125%;letter-spacing:0px;word-spacing:0px;fill:#000000;fill-opacity:1;stroke:none;font-family:Monospace;-inkscape-font-specification:Monospace"
         xml:space="preserve"><tspan
           style="font-size:11px;font-style:normal;font-variant:normal;font-weight:normal;font-stretch:normal;font-family:Arial;-inkscape-font-specification:Arial"
           y="768.89764"
           x="333.07086"
           id="tspan3975-0-8"
           sodipodi:role="line">Stage 3: Sync</tspan></text>
      <text
         sodipodi:linespacing="125%"
         id="text3041-8"
         y="790.15747"
         x="333.07086"
         style="font-size:12px;font-style:normal;font-variant:normal;font-weight:bold;font-stretch:normal;text-align:start;line-height:125%;letter-spacing:0px;word-spacing:0px;writing-mode:lr-tb;text-anchor:start;fill:#000000;fill-opacity:1;stroke:none;font-family:Monospace;-inkscape-font-specification:Monospace Bold"
         xml:space="preserve"><tspan
           style="font-size:12px;font-style:normal;font-variant:normal;font-weight:bold;font-stretch:normal;text-align:start;line-height:125%;writing-mode:lr-tb;text-anchor:start;font-family:Monospace;-inkscape-font-specification:Monospace Bold"
           y="790.15747"
           x="333.07086"
           id="tspan3043-8"
           sodipodi:role="line">Quote, List,</tspan><tspan
           id="tspan3864-3"
           style="font-size:12px;font-style:normal;font-variant:normal;font-weight:bold;font-stretch:normal;text-align:start;line-height:125%;writing-mode:lr-tb;text-anchor:start;font-family:Monospace;-inkscape-font-specification:Monospace Bold"
           y="805.15747"
           x="333.07086"
           sodipodi:role="line"> Pre, Para, </tspan><tspan
           id="tspan3866-4"
           style="font-size:12px;font-style:normal;font-variant:normal;font-weight:bold;font-stretch:normal;text-align:start;line-height:125%;writing-mode:lr-tb;text-anchor:start;font-family:Monospace;-inkscape-font-specification:Monospace Bold"
           y="820.15747"
           x="333.07086"
           sodipodi:role="line"> Sanitizer</tspan></text>
    </g>
    <text
       xml:space="preserve"
       style="font-size:14px;font-style:normal;font-variant:normal;font-weight:normal;font-stretch:normal;line-height:125%;letter-spacing:0px;word-spacing:0px;fill:#000000;fill-opacity:1;stroke:none;font-family:Monospace;-inkscape-font-specification:Monospace"
       x="177.16534"
       y="875.19684"
       id="text3973-6"
       sodipodi:linespacing="125%"><tspan
         sodipodi:role="line"
         id="tspan3975-5"
         x="177.16534"
         y="875.19684"
         style="font-size:11px;font-style:normal;font-variant:normal;font-weight:normal;font-stretch:normal;font-family:Arial;-inkscape-font-specification:Arial">Mediawiki  API</tspan></text>
    <g
       id="g3236-0-0"
       transform="matrix(0.36336651,0,0,0.53381836,-98.226862,514.79966)">
      <path
         transform="translate(0,308.2677)"
         inkscape:connector-curvature="0"
         d="m 293.60589,229.74751 c 3.31438,0.0534 6.62937,0.0515 9.9441,0.0539 3.91151,0.0243 7.82305,-0.003 11.73453,-0.0174 1.666,-0.0138 3.33202,-0.0275 4.99798,-0.0448 0.66082,-0.004 1.32166,-0.003 1.98246,-0.009 0.80539,0.008 1.61083,0.009 2.41625,0.0102 1.19277,-0.003 2.38547,0.007 3.57821,0.0137 1.64748,0.002 3.29497,0.002 4.94245,-0.003 0.91467,-0.004 1.82931,-0.0156 2.74399,-0.0174 0.75969,0.003 1.51937,0.003 2.27905,0.002 0.65048,-0.004 1.30097,-5.6e-4 1.95145,-0.004 0.75002,0.002 1.50003,0.005 2.25005,0.007 0.56075,-0.004 1.12152,-0.006 1.68226,-0.0112 0,0 -6.10954,4.43884 -6.10954,4.43884 l 0,0 c -0.55049,-0.006 -1.10103,-0.007 -1.65154,-0.0112 -0.75609,0.002 -1.51218,0.005 -2.26827,0.007 -0.647,-0.003 -1.294,0 -1.94099,-0.004 -0.76193,-3.1e-4 -1.52386,-9.7e-4 -2.28579,0.002 -0.8987,-0.002 -1.79737,-0.013 -2.69606,-0.0174 -1.64493,-0.005 -3.28986,-0.005 -4.93479,-0.003 -1.20535,0.006 -2.41066,0.0171 -3.61604,0.0137 -0.81475,0.001 -1.62952,0.002 -2.44424,0.0102 -0.65235,-0.006 -1.30474,-0.005 -1.9571,-0.009 -1.62481,-0.0175 -3.24967,-0.031 -4.87452,-0.0449 -3.89547,-0.0145 -7.79099,-0.0419 -11.68649,-0.0174 -3.36419,0.002 -6.72862,10e-4 -10.09248,0.0539 0,0 6.05507,-4.39926 6.05507,-4.39926 z"
         id="path3230-6-0"
         style="fill:#000000;stroke:#000000" />
      <path
         transform="translate(0,308.2677)"
         inkscape:connector-curvature="0"
         d="m 330.41878,222.64237 c 2.65303,1.52332 5.55751,2.49683 8.45546,3.43094 2.62552,0.90253 5.30898,1.68327 7.87108,2.75941 1.22356,0.5477 2.54564,0.74778 3.83238,1.08226 0.72813,0.14398 1.29133,0.25811 1.64925,0.94506 1.17576,3.31705 -4.34103,4.11398 -6.59398,5.49127 -2.29939,0.0775 -4.56228,0.32139 -6.82794,0.71131 -1.73502,0.61264 -3.52109,1.03844 -5.28631,1.53949 -1.13251,0.31573 -2.21336,0.76225 -3.26397,1.28533 -2.31418,1.21799 -5.3743,3.01942 5.33709,-3.09851 0.22012,-0.12572 -0.42101,0.28439 -0.61374,0.44905 -0.34876,0.27126 -0.55442,0.62259 -0.74095,1.01028 -0.076,0.39238 -0.0115,0.74567 -0.28748,1.07208 -0.23258,0.17633 -17.17322,9.73429 -0.61741,0.32965 0.0547,-0.0311 -0.11392,0.0536 -0.17122,0.0797 -7.05459,3.20847 -5.83299,5.43601 -7.10995,2.76019 -0.20663,-0.66067 -0.1681,-1.35378 -0.14844,-2.03572 0.0137,-0.39508 0.0376,-0.78738 0.0143,-1.18224 5.10253,-3.2441 12.53284,-7.12271 0.6416,-0.49547 -0.0712,0.0397 0.1185,-0.11449 0.18925,-0.15506 6.65801,-3.81807 4.1756,-3.37012 6.94197,-3.83839 0.67799,-0.0223 1.35621,-0.006 2.03441,-0.006 0.68105,0.003 1.36209,0.003 2.04314,0.006 0.649,-0.116 1.60351,0.26611 2.15567,-0.137 1.74812,-1.90167 0.13345,-0.11598 -6.07507,3.4124 -0.0877,0.0499 0.16654,-0.11403 0.24996,-0.17083 0.18871,-0.12848 0.35105,-0.25039 0.5646,-0.3302 0.1441,-0.1226 0.32844,-0.28336 0.36656,-0.47378 0.13941,-2.96013 4.54008,-4.21016 7.40439,-4.35567 0.31513,0.007 0.16185,0.004 0.45983,0.008 0,0 -6.09487,4.45132 -6.09487,4.45132 l 0,0 c -0.27435,0.0185 -0.13457,0.004 -0.4192,0.0443 -3.40936,0.62897 8.57165,-3.49998 5.40773,-3.53525 0.008,0.33827 0.006,0.62661 -0.1652,0.93803 -0.14291,0.33192 -0.44843,0.48911 -0.76037,0.67129 -6.73253,3.93191 -4.1382,3.63534 -6.92904,3.9218 -0.75178,-0.0432 -1.50603,-0.0146 -2.25866,-0.0203 -0.67784,-6.3e-4 -1.35564,-0.0102 -2.03348,-0.008 -0.63862,0.004 -1.31239,-0.031 -1.91792,0.20028 -2.36036,1.14991 -0.0254,0.0179 6.05513,-3.51414 0.0688,-0.04 -0.14598,0.0641 -0.21496,0.1037 -2.23756,1.28585 -4.46716,2.58554 -6.70411,3.87245 -0.0608,0.035 -0.24862,0.12991 -0.18888,0.0931 2.04577,-1.26161 4.0985,-2.51191 6.14774,-3.76787 -0.0474,-0.017 -0.10012,-0.0786 -0.1423,-0.051 -0.0195,0.0127 0.0265,0.85709 -0.0421,0.92375 -0.0313,0.57781 -0.0761,1.16046 -0.0134,1.73744 0.82151,2.51409 0.12627,0.20905 -6.46739,3.73526 -0.0639,0.0342 0.0791,-0.12829 0.14177,-0.16462 2.21703,-1.28557 4.45674,-2.53163 6.68658,-3.79486 0.0645,-0.0366 0.26044,-0.14189 0.19643,-0.10445 -2.0787,1.21591 -4.16043,2.42664 -6.24065,3.63996 0.49346,-0.19995 0.52361,0.0901 0.50988,-0.55659 0.0145,-0.51765 0.2438,-1.05257 0.57851,-1.44046 2.1224,-2.38283 5.26272,-3.52805 8.11074,-4.90424 1.07129,-0.4722 2.17662,-0.86536 3.31209,-1.15417 1.77307,-0.44564 3.50337,-1.03327 5.2842,-1.4465 0.86959,-0.13743 1.50964,-0.24961 2.39063,-0.34256 1.23573,-0.13038 2.5322,-0.0886 3.7456,-0.3873 0.2153,-0.053 0.41077,-0.16712 0.61616,-0.25067 -2.0042,1.23734 -4.01853,2.45844 -6.01261,3.71202 -0.0596,0.0375 0.16183,-0.002 0.20264,-0.0596 0.0992,-0.13938 -0.0397,-0.52717 -0.0155,-0.69505 -0.26887,-0.29566 -0.9033,-0.22807 -1.25919,-0.4172 -1.30216,-0.34355 -2.63111,-0.59537 -3.85039,-1.19796 -2.52181,-1.05995 -5.12996,-1.91622 -7.7221,-2.78382 -2.97859,-0.96414 -5.94675,-1.98681 -8.71019,-3.48092 0,0 6.30221,-4.06141 6.30221,-4.06141 z"
         id="path3234-7-82"
         style="fill:#000000;stroke:#000000" />
    </g>
    <g
       id="g3236-0-0-1"
       transform="matrix(0.36336651,0,0,0.53381836,22.245579,514.79966)">
      <path
         transform="translate(0,308.2677)"
         inkscape:connector-curvature="0"
         d="m 293.60589,229.74751 c 3.31438,0.0534 6.62937,0.0515 9.9441,0.0539 3.91151,0.0243 7.82305,-0.003 11.73453,-0.0174 1.666,-0.0138 3.33202,-0.0275 4.99798,-0.0448 0.66082,-0.004 1.32166,-0.003 1.98246,-0.009 0.80539,0.008 1.61083,0.009 2.41625,0.0102 1.19277,-0.003 2.38547,0.007 3.57821,0.0137 1.64748,0.002 3.29497,0.002 4.94245,-0.003 0.91467,-0.004 1.82931,-0.0156 2.74399,-0.0174 0.75969,0.003 1.51937,0.003 2.27905,0.002 0.65048,-0.004 1.30097,-5.6e-4 1.95145,-0.004 0.75002,0.002 1.50003,0.005 2.25005,0.007 0.56075,-0.004 1.12152,-0.006 1.68226,-0.0112 0,0 -6.10954,4.43884 -6.10954,4.43884 l 0,0 c -0.55049,-0.006 -1.10103,-0.007 -1.65154,-0.0112 -0.75609,0.002 -1.51218,0.005 -2.26827,0.007 -0.647,-0.003 -1.294,0 -1.94099,-0.004 -0.76193,-3.1e-4 -1.52386,-9.7e-4 -2.28579,0.002 -0.8987,-0.002 -1.79737,-0.013 -2.69606,-0.0174 -1.64493,-0.005 -3.28986,-0.005 -4.93479,-0.003 -1.20535,0.006 -2.41066,0.0171 -3.61604,0.0137 -0.81475,0.001 -1.62952,0.002 -2.44424,0.0102 -0.65235,-0.006 -1.30474,-0.005 -1.9571,-0.009 -1.62481,-0.0175 -3.24967,-0.031 -4.87452,-0.0449 -3.89547,-0.0145 -7.79099,-0.0419 -11.68649,-0.0174 -3.36419,0.002 -6.72862,10e-4 -10.09248,0.0539 0,0 6.05507,-4.39926 6.05507,-4.39926 z"
         id="path3230-6-0-6"
         style="fill:#000000;stroke:#000000" />
      <path
         transform="translate(0,308.2677)"
         inkscape:connector-curvature="0"
         d="m 330.41878,222.64237 c 2.65303,1.52332 5.55751,2.49683 8.45546,3.43094 2.62552,0.90253 5.30898,1.68327 7.87108,2.75941 1.22356,0.5477 2.54564,0.74778 3.83238,1.08226 0.72813,0.14398 1.29133,0.25811 1.64925,0.94506 1.17576,3.31705 -4.34103,4.11398 -6.59398,5.49127 -2.29939,0.0775 -4.56228,0.32139 -6.82794,0.71131 -1.73502,0.61264 -3.52109,1.03844 -5.28631,1.53949 -1.13251,0.31573 -2.21336,0.76225 -3.26397,1.28533 -2.31418,1.21799 -5.3743,3.01942 5.33709,-3.09851 0.22012,-0.12572 -0.42101,0.28439 -0.61374,0.44905 -0.34876,0.27126 -0.55442,0.62259 -0.74095,1.01028 -0.076,0.39238 -0.0115,0.74567 -0.28748,1.07208 -0.23258,0.17633 -17.17322,9.73429 -0.61741,0.32965 0.0547,-0.0311 -0.11392,0.0536 -0.17122,0.0797 -7.05459,3.20847 -5.83299,5.43601 -7.10995,2.76019 -0.20663,-0.66067 -0.1681,-1.35378 -0.14844,-2.03572 0.0137,-0.39508 0.0376,-0.78738 0.0143,-1.18224 5.10253,-3.2441 12.53284,-7.12271 0.6416,-0.49547 -0.0712,0.0397 0.1185,-0.11449 0.18925,-0.15506 6.65801,-3.81807 4.1756,-3.37012 6.94197,-3.83839 0.67799,-0.0223 1.35621,-0.006 2.03441,-0.006 0.68105,0.003 1.36209,0.003 2.04314,0.006 0.649,-0.116 1.60351,0.26611 2.15567,-0.137 1.74812,-1.90167 0.13345,-0.11598 -6.07507,3.4124 -0.0877,0.0499 0.16654,-0.11403 0.24996,-0.17083 0.18871,-0.12848 0.35105,-0.25039 0.5646,-0.3302 0.1441,-0.1226 0.32844,-0.28336 0.36656,-0.47378 0.13941,-2.96013 4.54008,-4.21016 7.40439,-4.35567 0.31513,0.007 0.16185,0.004 0.45983,0.008 0,0 -6.09487,4.45132 -6.09487,4.45132 l 0,0 c -0.27435,0.0185 -0.13457,0.004 -0.4192,0.0443 -3.40936,0.62897 8.57165,-3.49998 5.40773,-3.53525 0.008,0.33827 0.006,0.62661 -0.1652,0.93803 -0.14291,0.33192 -0.44843,0.48911 -0.76037,0.67129 -6.73253,3.93191 -4.1382,3.63534 -6.92904,3.9218 -0.75178,-0.0432 -1.50603,-0.0146 -2.25866,-0.0203 -0.67784,-6.3e-4 -1.35564,-0.0102 -2.03348,-0.008 -0.63862,0.004 -1.31239,-0.031 -1.91792,0.20028 -2.36036,1.14991 -0.0254,0.0179 6.05513,-3.51414 0.0688,-0.04 -0.14598,0.0641 -0.21496,0.1037 -2.23756,1.28585 -4.46716,2.58554 -6.70411,3.87245 -0.0608,0.035 -0.24862,0.12991 -0.18888,0.0931 2.04577,-1.26161 4.0985,-2.51191 6.14774,-3.76787 -0.0474,-0.017 -0.10012,-0.0786 -0.1423,-0.051 -0.0195,0.0127 0.0265,0.85709 -0.0421,0.92375 -0.0313,0.57781 -0.0761,1.16046 -0.0134,1.73744 0.82151,2.51409 0.12627,0.20905 -6.46739,3.73526 -0.0639,0.0342 0.0791,-0.12829 0.14177,-0.16462 2.21703,-1.28557 4.45674,-2.53163 6.68658,-3.79486 0.0645,-0.0366 0.26044,-0.14189 0.19643,-0.10445 -2.0787,1.21591 -4.16043,2.42664 -6.24065,3.63996 0.49346,-0.19995 0.52361,0.0901 0.50988,-0.55659 0.0145,-0.51765 0.2438,-1.05257 0.57851,-1.44046 2.1224,-2.38283 5.26272,-3.52805 8.11074,-4.90424 1.07129,-0.4722 2.17662,-0.86536 3.31209,-1.15417 1.77307,-0.44564 3.50337,-1.03327 5.2842,-1.4465 0.86959,-0.13743 1.50964,-0.24961 2.39063,-0.34256 1.23573,-0.13038 2.5322,-0.0886 3.7456,-0.3873 0.2153,-0.053 0.41077,-0.16712 0.61616,-0.25067 -2.0042,1.23734 -4.01853,2.45844 -6.01261,3.71202 -0.0596,0.0375 0.16183,-0.002 0.20264,-0.0596 0.0992,-0.13938 -0.0397,-0.52717 -0.0155,-0.69505 -0.26887,-0.29566 -0.9033,-0.22807 -1.25919,-0.4172 -1.30216,-0.34355 -2.63111,-0.59537 -3.85039,-1.19796 -2.52181,-1.05995 -5.12996,-1.91622 -7.7221,-2.78382 -2.97859,-0.96414 -5.94675,-1.98681 -8.71019,-3.48092 0,0 6.30221,-4.06141 6.30221,-4.06141 z"
         id="path3234-7-82-3"
         style="fill:#000000;stroke:#000000" />
    </g>
    <g
       id="g3236-0-0-1-9"
       transform="matrix(0.36336651,0,0,0.53381836,178.34308,513.30136)">
      <path
         transform="translate(0,308.2677)"
         inkscape:connector-curvature="0"
         d="m 293.60589,229.74751 c 3.31438,0.0534 6.62937,0.0515 9.9441,0.0539 3.91151,0.0243 7.82305,-0.003 11.73453,-0.0174 1.666,-0.0138 3.33202,-0.0275 4.99798,-0.0448 0.66082,-0.004 1.32166,-0.003 1.98246,-0.009 0.80539,0.008 1.61083,0.009 2.41625,0.0102 1.19277,-0.003 2.38547,0.007 3.57821,0.0137 1.64748,0.002 3.29497,0.002 4.94245,-0.003 0.91467,-0.004 1.82931,-0.0156 2.74399,-0.0174 0.75969,0.003 1.51937,0.003 2.27905,0.002 0.65048,-0.004 1.30097,-5.6e-4 1.95145,-0.004 0.75002,0.002 1.50003,0.005 2.25005,0.007 0.56075,-0.004 1.12152,-0.006 1.68226,-0.0112 0,0 -6.10954,4.43884 -6.10954,4.43884 l 0,0 c -0.55049,-0.006 -1.10103,-0.007 -1.65154,-0.0112 -0.75609,0.002 -1.51218,0.005 -2.26827,0.007 -0.647,-0.003 -1.294,0 -1.94099,-0.004 -0.76193,-3.1e-4 -1.52386,-9.7e-4 -2.28579,0.002 -0.8987,-0.002 -1.79737,-0.013 -2.69606,-0.0174 -1.64493,-0.005 -3.28986,-0.005 -4.93479,-0.003 -1.20535,0.006 -2.41066,0.0171 -3.61604,0.0137 -0.81475,0.001 -1.62952,0.002 -2.44424,0.0102 -0.65235,-0.006 -1.30474,-0.005 -1.9571,-0.009 -1.62481,-0.0175 -3.24967,-0.031 -4.87452,-0.0449 -3.89547,-0.0145 -7.79099,-0.0419 -11.68649,-0.0174 -3.36419,0.002 -6.72862,10e-4 -10.09248,0.0539 0,0 6.05507,-4.39926 6.05507,-4.39926 z"
         id="path3230-6-0-6-9"
         style="fill:#000000;stroke:#000000" />
      <path
         transform="translate(0,308.2677)"
         inkscape:connector-curvature="0"
         d="m 330.41878,222.64237 c 2.65303,1.52332 5.55751,2.49683 8.45546,3.43094 2.62552,0.90253 5.30898,1.68327 7.87108,2.75941 1.22356,0.5477 2.54564,0.74778 3.83238,1.08226 0.72813,0.14398 1.29133,0.25811 1.64925,0.94506 1.17576,3.31705 -4.34103,4.11398 -6.59398,5.49127 -2.29939,0.0775 -4.56228,0.32139 -6.82794,0.71131 -1.73502,0.61264 -3.52109,1.03844 -5.28631,1.53949 -1.13251,0.31573 -2.21336,0.76225 -3.26397,1.28533 -2.31418,1.21799 -5.3743,3.01942 5.33709,-3.09851 0.22012,-0.12572 -0.42101,0.28439 -0.61374,0.44905 -0.34876,0.27126 -0.55442,0.62259 -0.74095,1.01028 -0.076,0.39238 -0.0115,0.74567 -0.28748,1.07208 -0.23258,0.17633 -17.17322,9.73429 -0.61741,0.32965 0.0547,-0.0311 -0.11392,0.0536 -0.17122,0.0797 -7.05459,3.20847 -5.83299,5.43601 -7.10995,2.76019 -0.20663,-0.66067 -0.1681,-1.35378 -0.14844,-2.03572 0.0137,-0.39508 0.0376,-0.78738 0.0143,-1.18224 5.10253,-3.2441 12.53284,-7.12271 0.6416,-0.49547 -0.0712,0.0397 0.1185,-0.11449 0.18925,-0.15506 6.65801,-3.81807 4.1756,-3.37012 6.94197,-3.83839 0.67799,-0.0223 1.35621,-0.006 2.03441,-0.006 0.68105,0.003 1.36209,0.003 2.04314,0.006 0.649,-0.116 1.60351,0.26611 2.15567,-0.137 1.74812,-1.90167 0.13345,-0.11598 -6.07507,3.4124 -0.0877,0.0499 0.16654,-0.11403 0.24996,-0.17083 0.18871,-0.12848 0.35105,-0.25039 0.5646,-0.3302 0.1441,-0.1226 0.32844,-0.28336 0.36656,-0.47378 0.13941,-2.96013 4.54008,-4.21016 7.40439,-4.35567 0.31513,0.007 0.16185,0.004 0.45983,0.008 0,0 -6.09487,4.45132 -6.09487,4.45132 l 0,0 c -0.27435,0.0185 -0.13457,0.004 -0.4192,0.0443 -3.40936,0.62897 8.57165,-3.49998 5.40773,-3.53525 0.008,0.33827 0.006,0.62661 -0.1652,0.93803 -0.14291,0.33192 -0.44843,0.48911 -0.76037,0.67129 -6.73253,3.93191 -4.1382,3.63534 -6.92904,3.9218 -0.75178,-0.0432 -1.50603,-0.0146 -2.25866,-0.0203 -0.67784,-6.3e-4 -1.35564,-0.0102 -2.03348,-0.008 -0.63862,0.004 -1.31239,-0.031 -1.91792,0.20028 -2.36036,1.14991 -0.0254,0.0179 6.05513,-3.51414 0.0688,-0.04 -0.14598,0.0641 -0.21496,0.1037 -2.23756,1.28585 -4.46716,2.58554 -6.70411,3.87245 -0.0608,0.035 -0.24862,0.12991 -0.18888,0.0931 2.04577,-1.26161 4.0985,-2.51191 6.14774,-3.76787 -0.0474,-0.017 -0.10012,-0.0786 -0.1423,-0.051 -0.0195,0.0127 0.0265,0.85709 -0.0421,0.92375 -0.0313,0.57781 -0.0761,1.16046 -0.0134,1.73744 0.82151,2.51409 0.12627,0.20905 -6.46739,3.73526 -0.0639,0.0342 0.0791,-0.12829 0.14177,-0.16462 2.21703,-1.28557 4.45674,-2.53163 6.68658,-3.79486 0.0645,-0.0366 0.26044,-0.14189 0.19643,-0.10445 -2.0787,1.21591 -4.16043,2.42664 -6.24065,3.63996 0.49346,-0.19995 0.52361,0.0901 0.50988,-0.55659 0.0145,-0.51765 0.2438,-1.05257 0.57851,-1.44046 2.1224,-2.38283 5.26272,-3.52805 8.11074,-4.90424 1.07129,-0.4722 2.17662,-0.86536 3.31209,-1.15417 1.77307,-0.44564 3.50337,-1.03327 5.2842,-1.4465 0.86959,-0.13743 1.50964,-0.24961 2.39063,-0.34256 1.23573,-0.13038 2.5322,-0.0886 3.7456,-0.3873 0.2153,-0.053 0.41077,-0.16712 0.61616,-0.25067 -2.0042,1.23734 -4.01853,2.45844 -6.01261,3.71202 -0.0596,0.0375 0.16183,-0.002 0.20264,-0.0596 0.0992,-0.13938 -0.0397,-0.52717 -0.0155,-0.69505 -0.26887,-0.29566 -0.9033,-0.22807 -1.25919,-0.4172 -1.30216,-0.34355 -2.63111,-0.59537 -3.85039,-1.19796 -2.52181,-1.05995 -5.12996,-1.91622 -7.7221,-2.78382 -2.97859,-0.96414 -5.94675,-1.98681 -8.71019,-3.48092 0,0 6.30221,-4.06141 6.30221,-4.06141 z"
         id="path3234-7-82-3-2"
         style="fill:#000000;stroke:#000000" />
    </g>
    <g
       id="g3236-0-0-1-9-8"
       transform="matrix(0.36336651,0,0,0.53381836,318.99071,514.15979)">
      <path
         transform="translate(0,308.2677)"
         inkscape:connector-curvature="0"
         d="m 293.60589,229.74751 c 3.31438,0.0534 6.62937,0.0515 9.9441,0.0539 3.91151,0.0243 7.82305,-0.003 11.73453,-0.0174 1.666,-0.0138 3.33202,-0.0275 4.99798,-0.0448 0.66082,-0.004 1.32166,-0.003 1.98246,-0.009 0.80539,0.008 1.61083,0.009 2.41625,0.0102 1.19277,-0.003 2.38547,0.007 3.57821,0.0137 1.64748,0.002 3.29497,0.002 4.94245,-0.003 0.91467,-0.004 1.82931,-0.0156 2.74399,-0.0174 0.75969,0.003 1.51937,0.003 2.27905,0.002 0.65048,-0.004 1.30097,-5.6e-4 1.95145,-0.004 0.75002,0.002 1.50003,0.005 2.25005,0.007 0.56075,-0.004 1.12152,-0.006 1.68226,-0.0112 0,0 -6.10954,4.43884 -6.10954,4.43884 l 0,0 c -0.55049,-0.006 -1.10103,-0.007 -1.65154,-0.0112 -0.75609,0.002 -1.51218,0.005 -2.26827,0.007 -0.647,-0.003 -1.294,0 -1.94099,-0.004 -0.76193,-3.1e-4 -1.52386,-9.7e-4 -2.28579,0.002 -0.8987,-0.002 -1.79737,-0.013 -2.69606,-0.0174 -1.64493,-0.005 -3.28986,-0.005 -4.93479,-0.003 -1.20535,0.006 -2.41066,0.0171 -3.61604,0.0137 -0.81475,0.001 -1.62952,0.002 -2.44424,0.0102 -0.65235,-0.006 -1.30474,-0.005 -1.9571,-0.009 -1.62481,-0.0175 -3.24967,-0.031 -4.87452,-0.0449 -3.89547,-0.0145 -7.79099,-0.0419 -11.68649,-0.0174 -3.36419,0.002 -6.72862,10e-4 -10.09248,0.0539 0,0 6.05507,-4.39926 6.05507,-4.39926 z"
         id="path3230-6-0-6-9-3"
         style="fill:#000000;stroke:#000000" />
      <path
         transform="translate(0,308.2677)"
         inkscape:connector-curvature="0"
         d="m 330.41878,222.64237 c 2.65303,1.52332 5.55751,2.49683 8.45546,3.43094 2.62552,0.90253 5.30898,1.68327 7.87108,2.75941 1.22356,0.5477 2.54564,0.74778 3.83238,1.08226 0.72813,0.14398 1.29133,0.25811 1.64925,0.94506 1.17576,3.31705 -4.34103,4.11398 -6.59398,5.49127 -2.29939,0.0775 -4.56228,0.32139 -6.82794,0.71131 -1.73502,0.61264 -3.52109,1.03844 -5.28631,1.53949 -1.13251,0.31573 -2.21336,0.76225 -3.26397,1.28533 -2.31418,1.21799 -5.3743,3.01942 5.33709,-3.09851 0.22012,-0.12572 -0.42101,0.28439 -0.61374,0.44905 -0.34876,0.27126 -0.55442,0.62259 -0.74095,1.01028 -0.076,0.39238 -0.0115,0.74567 -0.28748,1.07208 -0.23258,0.17633 -17.17322,9.73429 -0.61741,0.32965 0.0547,-0.0311 -0.11392,0.0536 -0.17122,0.0797 -7.05459,3.20847 -5.83299,5.43601 -7.10995,2.76019 -0.20663,-0.66067 -0.1681,-1.35378 -0.14844,-2.03572 0.0137,-0.39508 0.0376,-0.78738 0.0143,-1.18224 5.10253,-3.2441 12.53284,-7.12271 0.6416,-0.49547 -0.0712,0.0397 0.1185,-0.11449 0.18925,-0.15506 6.65801,-3.81807 4.1756,-3.37012 6.94197,-3.83839 0.67799,-0.0223 1.35621,-0.006 2.03441,-0.006 0.68105,0.003 1.36209,0.003 2.04314,0.006 0.649,-0.116 1.60351,0.26611 2.15567,-0.137 1.74812,-1.90167 0.13345,-0.11598 -6.07507,3.4124 -0.0877,0.0499 0.16654,-0.11403 0.24996,-0.17083 0.18871,-0.12848 0.35105,-0.25039 0.5646,-0.3302 0.1441,-0.1226 0.32844,-0.28336 0.36656,-0.47378 0.13941,-2.96013 4.54008,-4.21016 7.40439,-4.35567 0.31513,0.007 0.16185,0.004 0.45983,0.008 0,0 -6.09487,4.45132 -6.09487,4.45132 l 0,0 c -0.27435,0.0185 -0.13457,0.004 -0.4192,0.0443 -3.40936,0.62897 8.57165,-3.49998 5.40773,-3.53525 0.008,0.33827 0.006,0.62661 -0.1652,0.93803 -0.14291,0.33192 -0.44843,0.48911 -0.76037,0.67129 -6.73253,3.93191 -4.1382,3.63534 -6.92904,3.9218 -0.75178,-0.0432 -1.50603,-0.0146 -2.25866,-0.0203 -0.67784,-6.3e-4 -1.35564,-0.0102 -2.03348,-0.008 -0.63862,0.004 -1.31239,-0.031 -1.91792,0.20028 -2.36036,1.14991 -0.0254,0.0179 6.05513,-3.51414 0.0688,-0.04 -0.14598,0.0641 -0.21496,0.1037 -2.23756,1.28585 -4.46716,2.58554 -6.70411,3.87245 -0.0608,0.035 -0.24862,0.12991 -0.18888,0.0931 2.04577,-1.26161 4.0985,-2.51191 6.14774,-3.76787 -0.0474,-0.017 -0.10012,-0.0786 -0.1423,-0.051 -0.0195,0.0127 0.0265,0.85709 -0.0421,0.92375 -0.0313,0.57781 -0.0761,1.16046 -0.0134,1.73744 0.82151,2.51409 0.12627,0.20905 -6.46739,3.73526 -0.0639,0.0342 0.0791,-0.12829 0.14177,-0.16462 2.21703,-1.28557 4.45674,-2.53163 6.68658,-3.79486 0.0645,-0.0366 0.26044,-0.14189 0.19643,-0.10445 -2.0787,1.21591 -4.16043,2.42664 -6.24065,3.63996 0.49346,-0.19995 0.52361,0.0901 0.50988,-0.55659 0.0145,-0.51765 0.2438,-1.05257 0.57851,-1.44046 2.1224,-2.38283 5.26272,-3.52805 8.11074,-4.90424 1.07129,-0.4722 2.17662,-0.86536 3.31209,-1.15417 1.77307,-0.44564 3.50337,-1.03327 5.2842,-1.4465 0.86959,-0.13743 1.50964,-0.24961 2.39063,-0.34256 1.23573,-0.13038 2.5322,-0.0886 3.7456,-0.3873 0.2153,-0.053 0.41077,-0.16712 0.61616,-0.25067 -2.0042,1.23734 -4.01853,2.45844 -6.01261,3.71202 -0.0596,0.0375 0.16183,-0.002 0.20264,-0.0596 0.0992,-0.13938 -0.0397,-0.52717 -0.0155,-0.69505 -0.26887,-0.29566 -0.9033,-0.22807 -1.25919,-0.4172 -1.30216,-0.34355 -2.63111,-0.59537 -3.85039,-1.19796 -2.52181,-1.05995 -5.12996,-1.91622 -7.7221,-2.78382 -2.97859,-0.96414 -5.94675,-1.98681 -8.71019,-3.48092 0,0 6.30221,-4.06141 6.30221,-4.06141 z"
         id="path3234-7-82-3-2-5"
         style="fill:#000000;stroke:#000000" />
    </g>
    <text
       xml:space="preserve"
       style="font-size:14px;font-style:normal;font-variant:normal;font-weight:normal;font-stretch:normal;line-height:125%;letter-spacing:0px;word-spacing:0px;fill:#008080;fill-opacity:1;stroke:none;font-family:Monospace;-inkscape-font-specification:Monospace"
       x="-27.919857"
       y="790.83832"
       id="text3973-6-3"
       sodipodi:linespacing="125%"><tspan
         sodipodi:role="line"
         id="tspan3975-5-7"
         x="-27.919857"
         y="790.83832"
         style="font-size:11px;font-style:normal;font-variant:normal;font-weight:normal;font-stretch:normal;font-family:Arial;-inkscape-font-specification:Arial;fill:#008080">WT Tokens</tspan></text>
    <text
       xml:space="preserve"
       style="font-size:14px;font-style:normal;font-variant:normal;font-weight:normal;font-stretch:normal;line-height:125%;letter-spacing:0px;word-spacing:0px;fill:#008080;fill-opacity:1;stroke:none;font-family:Monospace;-inkscape-font-specification:Monospace"
       x="425.19684"
       y="790.15747"
       id="text3973-6-3-0"
       sodipodi:linespacing="125%"><tspan
         sodipodi:role="line"
         id="tspan3975-5-7-6"
         x="425.19684"
         y="790.15747"
         style="font-size:11px;font-style:normal;font-variant:normal;font-weight:normal;font-stretch:normal;fill:#008080;font-family:Arial;-inkscape-font-specification:Arial">HTML Tokens</tspan></text>
  </g>
</svg>
