<?xml version="1.0" encoding="UTF-8" standalone="no"?>
<!-- Created with Inkscape (http://www.inkscape.org/) -->

<svg
   xmlns:dc="http://purl.org/dc/elements/1.1/"
   xmlns:cc="http://creativecommons.org/ns#"
   xmlns:rdf="http://www.w3.org/1999/02/22-rdf-syntax-ns#"
   xmlns:svg="http://www.w3.org/2000/svg"
   xmlns="http://www.w3.org/2000/svg"
   xmlns:sodipodi="http://sodipodi.sourceforge.net/DTD/sodipodi-0.dtd"
   xmlns:inkscape="http://www.inkscape.org/namespaces/inkscape"
   width="1052.3622"
   height="744.09448"
   id="svg2"
   version="1.1"
   inkscape:version="0.48.3.1 r9886"
   sodipodi:docname="parsoid.html2wt.eps">
  <defs
     id="defs4" />
  <sodipodi:namedview
     id="base"
     pagecolor="#ffffff"
     bordercolor="#666666"
     borderopacity="1.0"
     inkscape:pageopacity="0.0"
     inkscape:pageshadow="2"
     inkscape:zoom="1.4"
     inkscape:cx="453.34697"
     inkscape:cy="509.65881"
     inkscape:document-units="px"
     inkscape:current-layer="layer1"
     showgrid="false"
     showguides="false"
     inkscape:snap-global="true"
     inkscape:window-width="1920"
     inkscape:window-height="1002"
     inkscape:window-x="0"
     inkscape:window-y="24"
     inkscape:window-maximized="1">
    <sodipodi:guide
       position="0,0"
       orientation="0,744.09448"
       id="guide2987" />
    <sodipodi:guide
       position="744.09448,0"
       orientation="-1052.3622,0"
       id="guide2989" />
    <sodipodi:guide
       position="744.09448,1052.3622"
       orientation="0,-744.09448"
       id="guide2991" />
    <sodipodi:guide
       position="1.4285714,878.57143"
       orientation="1052.3622,0"
       id="guide2993" />
    <inkscape:grid
       type="xygrid"
       id="grid3031"
       empspacing="5"
       visible="true"
       enabled="true"
       snapvisiblegridlinesonly="true" />
  </sodipodi:namedview>
  <metadata
     id="metadata7">
    <rdf:RDF>
      <cc:Work
         rdf:about="">
        <dc:format>image/svg+xml</dc:format>
        <dc:type
           rdf:resource="http://purl.org/dc/dcmitype/StillImage" />
        <dc:title></dc:title>
      </cc:Work>
    </rdf:RDF>
  </metadata>
  <g
     inkscape:label="Layer 1"
     inkscape:groupmode="layer"
     id="layer1"
     transform="translate(0,-308.2677)">
    <text
       xml:space="preserve"
       style="font-size:20px;font-style:normal;font-weight:normal;line-height:125%;letter-spacing:0px;word-spacing:0px;fill:#000000;fill-opacity:1;stroke:none;font-family:Sans"
       x="82.857147"
       y="392.36218"
       id="text3033"
       sodipodi:linespacing="125%"><tspan
         sodipodi:role="line"
         id="tspan3035"
         x="82.857147"
         y="392.36218" /></text>
    <text
       xml:space="preserve"
       style="font-size:24px;font-style:normal;font-weight:normal;line-height:125%;letter-spacing:0px;word-spacing:0px;fill:#000000;fill-opacity:1;stroke:none;font-family:Sans"
       x="90"
       y="406.64789"
       id="text3037"
       sodipodi:linespacing="125%"><tspan
         sodipodi:role="line"
         id="tspan3039"
         x="90"
         y="406.64789" /></text>
    <text
       xml:space="preserve"
       style="font-size:16px;font-style:normal;font-weight:normal;line-height:125%;letter-spacing:0px;word-spacing:0px;fill:#000000;fill-opacity:1;stroke:none;font-family:Monospace;-inkscape-font-specification:Monospace;font-stretch:normal;font-variant:normal"
       x="752.56366"
       y="220.83546"
       id="text3450"
       sodipodi:linespacing="125%"
       transform="translate(0,308.2677)"><tspan
         sodipodi:role="line"
         id="tspan3452"
         x="752.56366"
         y="220.83546" /></text>
    <text
       xml:space="preserve"
       style="font-size:16px;font-style:normal;font-weight:normal;line-height:125%;letter-spacing:0px;word-spacing:0px;fill:#000000;fill-opacity:1;stroke:none;font-family:Sans"
       x="10"
       y="392.36218"
       id="text3454"
       sodipodi:linespacing="125%"><tspan
         sodipodi:role="line"
         x="10"
         y="392.36218"
         id="tspan3458"
         style="font-size:16px" /></text>
    <rect
       style="fill:#f2f2f2;stroke:#999999;stroke-width:0.95692706"
       id="rect3881"
       width="695"
       height="195"
       x="25"
       y="327.36218" />
    <g
       id="g3236-0-0-4-7"
       transform="matrix(-0.0194105,0.50595689,-0.83492048,-0.01883057,665.67054,258.9076)">
      <path
         transform="translate(0,308.2677)"
         inkscape:connector-curvature="0"
         d="m 293.60589,229.74751 c 3.31438,0.0534 6.62937,0.0515 9.9441,0.0539 3.91151,0.0243 7.82305,-0.003 11.73453,-0.0174 1.666,-0.0138 3.33202,-0.0275 4.99798,-0.0448 0.66082,-0.004 1.32166,-0.003 1.98246,-0.009 0.80539,0.008 1.61083,0.009 2.41625,0.0102 1.19277,-0.003 2.38547,0.007 3.57821,0.0137 1.64748,0.002 3.29497,0.002 4.94245,-0.003 0.91467,-0.004 1.82931,-0.0156 2.74399,-0.0174 0.75969,0.003 1.51937,0.003 2.27905,0.002 0.65048,-0.004 1.30097,-5.6e-4 1.95145,-0.004 0.75002,0.002 1.50003,0.005 2.25005,0.007 0.56075,-0.004 1.12152,-0.006 1.68226,-0.0112 0,0 -6.10954,4.43884 -6.10954,4.43884 l 0,0 c -0.55049,-0.006 -1.10103,-0.007 -1.65154,-0.0112 -0.75609,0.002 -1.51218,0.005 -2.26827,0.007 -0.647,-0.003 -1.294,0 -1.94099,-0.004 -0.76193,-3.1e-4 -1.52386,-9.7e-4 -2.28579,0.002 -0.8987,-0.002 -1.79737,-0.013 -2.69606,-0.0174 -1.64493,-0.005 -3.28986,-0.005 -4.93479,-0.003 -1.20535,0.006 -2.41066,0.0171 -3.61604,0.0137 -0.81475,0.001 -1.62952,0.002 -2.44424,0.0102 -0.65235,-0.006 -1.30474,-0.005 -1.9571,-0.009 -1.62481,-0.0175 -3.24967,-0.031 -4.87452,-0.0449 -3.89547,-0.0145 -7.79099,-0.0419 -11.68649,-0.0174 -3.36419,0.002 -6.72862,10e-4 -10.09248,0.0539 0,0 6.05507,-4.39926 6.05507,-4.39926 z"
         id="path3230-6-0-8-6"
         style="fill:#000000;stroke:#000000" />
      <path
         transform="translate(0,308.2677)"
         inkscape:connector-curvature="0"
         d="m 330.41878,222.64237 c 2.65303,1.52332 5.55751,2.49683 8.45546,3.43094 2.62552,0.90253 5.30898,1.68327 7.87108,2.75941 1.22356,0.5477 2.54564,0.74778 3.83238,1.08226 0.72813,0.14398 1.29133,0.25811 1.64925,0.94506 1.17576,3.31705 -4.34103,4.11398 -6.59398,5.49127 -2.29939,0.0775 -4.56228,0.32139 -6.82794,0.71131 -1.73502,0.61264 -3.52109,1.03844 -5.28631,1.53949 -1.13251,0.31573 -2.21336,0.76225 -3.26397,1.28533 -2.31418,1.21799 -5.3743,3.01942 5.33709,-3.09851 0.22012,-0.12572 -0.42101,0.28439 -0.61374,0.44905 -0.34876,0.27126 -0.55442,0.62259 -0.74095,1.01028 -0.076,0.39238 -0.0115,0.74567 -0.28748,1.07208 -0.23258,0.17633 -17.17322,9.73429 -0.61741,0.32965 0.0547,-0.0311 -0.11392,0.0536 -0.17122,0.0797 -7.05459,3.20847 -5.83299,5.43601 -7.10995,2.76019 -0.20663,-0.66067 -0.1681,-1.35378 -0.14844,-2.03572 0.0137,-0.39508 0.0376,-0.78738 0.0143,-1.18224 5.10253,-3.2441 12.53284,-7.12271 0.6416,-0.49547 -0.0712,0.0397 0.1185,-0.11449 0.18925,-0.15506 6.65801,-3.81807 4.1756,-3.37012 6.94197,-3.83839 0.67799,-0.0223 1.35621,-0.006 2.03441,-0.006 0.68105,0.003 1.36209,0.003 2.04314,0.006 0.649,-0.116 1.60351,0.26611 2.15567,-0.137 1.74812,-1.90167 0.13345,-0.11598 -6.07507,3.4124 -0.0877,0.0499 0.16654,-0.11403 0.24996,-0.17083 0.18871,-0.12848 0.35105,-0.25039 0.5646,-0.3302 0.1441,-0.1226 0.32844,-0.28336 0.36656,-0.47378 0.13941,-2.96013 4.54008,-4.21016 7.40439,-4.35567 0.31513,0.007 0.16185,0.004 0.45983,0.008 0,0 -6.09487,4.45132 -6.09487,4.45132 l 0,0 c -0.27435,0.0185 -0.13457,0.004 -0.4192,0.0443 -3.40936,0.62897 8.57165,-3.49998 5.40773,-3.53525 0.008,0.33827 0.006,0.62661 -0.1652,0.93803 -0.14291,0.33192 -0.44843,0.48911 -0.76037,0.67129 -6.73253,3.93191 -4.1382,3.63534 -6.92904,3.9218 -0.75178,-0.0432 -1.50603,-0.0146 -2.25866,-0.0203 -0.67784,-6.3e-4 -1.35564,-0.0102 -2.03348,-0.008 -0.63862,0.004 -1.31239,-0.031 -1.91792,0.20028 -2.36036,1.14991 -0.0254,0.0179 6.05513,-3.51414 0.0688,-0.04 -0.14598,0.0641 -0.21496,0.1037 -2.23756,1.28585 -4.46716,2.58554 -6.70411,3.87245 -0.0608,0.035 -0.24862,0.12991 -0.18888,0.0931 2.04577,-1.26161 4.0985,-2.51191 6.14774,-3.76787 -0.0474,-0.017 -0.10012,-0.0786 -0.1423,-0.051 -0.0195,0.0127 0.0265,0.85709 -0.0421,0.92375 -0.0313,0.57781 -0.0761,1.16046 -0.0134,1.73744 0.82151,2.51409 0.12627,0.20905 -6.46739,3.73526 -0.0639,0.0342 0.0791,-0.12829 0.14177,-0.16462 2.21703,-1.28557 4.45674,-2.53163 6.68658,-3.79486 0.0645,-0.0366 0.26044,-0.14189 0.19643,-0.10445 -2.0787,1.21591 -4.16043,2.42664 -6.24065,3.63996 0.49346,-0.19995 0.52361,0.0901 0.50988,-0.55659 0.0145,-0.51765 0.2438,-1.05257 0.57851,-1.44046 2.1224,-2.38283 5.26272,-3.52805 8.11074,-4.90424 1.07129,-0.4722 2.17662,-0.86536 3.31209,-1.15417 1.77307,-0.44564 3.50337,-1.03327 5.2842,-1.4465 0.86959,-0.13743 1.50964,-0.24961 2.39063,-0.34256 1.23573,-0.13038 2.5322,-0.0886 3.7456,-0.3873 0.2153,-0.053 0.41077,-0.16712 0.61616,-0.25067 -2.0042,1.23734 -4.01853,2.45844 -6.01261,3.71202 -0.0596,0.0375 0.16183,-0.002 0.20264,-0.0596 0.0992,-0.13938 -0.0397,-0.52717 -0.0155,-0.69505 -0.26887,-0.29566 -0.9033,-0.22807 -1.25919,-0.4172 -1.30216,-0.34355 -2.63111,-0.59537 -3.85039,-1.19796 -2.52181,-1.05995 -5.12996,-1.91622 -7.7221,-2.78382 -2.97859,-0.96414 -5.94675,-1.98681 -8.71019,-3.48092 0,0 6.30221,-4.06141 6.30221,-4.06141 z"
         id="path3234-7-82-8-2"
         style="fill:#000000;stroke:#000000" />
    </g>
    <text
       xml:space="preserve"
       style="font-size:12px;font-style:normal;font-variant:normal;font-weight:normal;font-stretch:normal;text-align:start;line-height:125%;letter-spacing:0px;word-spacing:0px;writing-mode:lr-tb;text-anchor:start;fill:#aa4400;fill-opacity:1;stroke:none;font-family:Arial;-inkscape-font-specification:Arial"
       x="170"
       y="387.36218"
       id="text3322-2"
       sodipodi:linespacing="125%"><tspan
         sodipodi:role="line"
         id="tspan3324-2"
         x="170"
         y="387.36218">Original HTML</tspan></text>
    <rect
       style="fill:#ffffff;fill-rule:evenodd;stroke:#000000;stroke-width:0.41180974px;stroke-linecap:butt;stroke-linejoin:miter;stroke-opacity:1"
       id="rect2995-8-5"
       width="208.93459"
       height="90.000015"
       x="371.06543"
       y="412.36218" />
    <rect
       style="fill:#ffffff;fill-rule:evenodd;stroke:#000000;stroke-width:0.22163488px;stroke-linecap:butt;stroke-linejoin:miter;stroke-opacity:1"
       id="rect2995-8"
       width="108.93459"
       height="50.000008"
       x="151.0654"
       y="432.36218" />
    <text
       xml:space="preserve"
       style="font-size:20px;font-style:normal;font-weight:normal;line-height:125%;letter-spacing:0px;word-spacing:0px;fill:#000000;fill-opacity:1;stroke:none;font-family:Sans"
       x="170"
       y="462.36218"
       id="text3041-2"
       sodipodi:linespacing="125%"><tspan
         sodipodi:role="line"
         id="tspan3043-4"
         x="170"
         y="462.36218"
         style="font-size:16px;font-style:normal;font-variant:normal;font-weight:bold;font-stretch:normal;font-family:Monospace;-inkscape-font-specification:Monospace Bold">DOM Diff</tspan></text>
    <g
       id="g3236-0-0-4"
       transform="matrix(0.66016693,0,0,0.83528161,-90.977889,4.2967085)">
      <path
         transform="translate(0,308.2677)"
         inkscape:connector-curvature="0"
         d="m 293.60589,229.74751 c 3.31438,0.0534 6.62937,0.0515 9.9441,0.0539 3.91151,0.0243 7.82305,-0.003 11.73453,-0.0174 1.666,-0.0138 3.33202,-0.0275 4.99798,-0.0448 0.66082,-0.004 1.32166,-0.003 1.98246,-0.009 0.80539,0.008 1.61083,0.009 2.41625,0.0102 1.19277,-0.003 2.38547,0.007 3.57821,0.0137 1.64748,0.002 3.29497,0.002 4.94245,-0.003 0.91467,-0.004 1.82931,-0.0156 2.74399,-0.0174 0.75969,0.003 1.51937,0.003 2.27905,0.002 0.65048,-0.004 1.30097,-5.6e-4 1.95145,-0.004 0.75002,0.002 1.50003,0.005 2.25005,0.007 0.56075,-0.004 1.12152,-0.006 1.68226,-0.0112 0,0 -6.10954,4.43884 -6.10954,4.43884 l 0,0 c -0.55049,-0.006 -1.10103,-0.007 -1.65154,-0.0112 -0.75609,0.002 -1.51218,0.005 -2.26827,0.007 -0.647,-0.003 -1.294,0 -1.94099,-0.004 -0.76193,-3.1e-4 -1.52386,-9.7e-4 -2.28579,0.002 -0.8987,-0.002 -1.79737,-0.013 -2.69606,-0.0174 -1.64493,-0.005 -3.28986,-0.005 -4.93479,-0.003 -1.20535,0.006 -2.41066,0.0171 -3.61604,0.0137 -0.81475,0.001 -1.62952,0.002 -2.44424,0.0102 -0.65235,-0.006 -1.30474,-0.005 -1.9571,-0.009 -1.62481,-0.0175 -3.24967,-0.031 -4.87452,-0.0449 -3.89547,-0.0145 -7.79099,-0.0419 -11.68649,-0.0174 -3.36419,0.002 -6.72862,10e-4 -10.09248,0.0539 0,0 6.05507,-4.39926 6.05507,-4.39926 z"
         id="path3230-6-0-8"
         style="fill:#000000;stroke:#000000" />
      <path
         transform="translate(0,308.2677)"
         inkscape:connector-curvature="0"
         d="m 330.41878,222.64237 c 2.65303,1.52332 5.55751,2.49683 8.45546,3.43094 2.62552,0.90253 5.30898,1.68327 7.87108,2.75941 1.22356,0.5477 2.54564,0.74778 3.83238,1.08226 0.72813,0.14398 1.29133,0.25811 1.64925,0.94506 1.17576,3.31705 -4.34103,4.11398 -6.59398,5.49127 -2.29939,0.0775 -4.56228,0.32139 -6.82794,0.71131 -1.73502,0.61264 -3.52109,1.03844 -5.28631,1.53949 -1.13251,0.31573 -2.21336,0.76225 -3.26397,1.28533 -2.31418,1.21799 -5.3743,3.01942 5.33709,-3.09851 0.22012,-0.12572 -0.42101,0.28439 -0.61374,0.44905 -0.34876,0.27126 -0.55442,0.62259 -0.74095,1.01028 -0.076,0.39238 -0.0115,0.74567 -0.28748,1.07208 -0.23258,0.17633 -17.17322,9.73429 -0.61741,0.32965 0.0547,-0.0311 -0.11392,0.0536 -0.17122,0.0797 -7.05459,3.20847 -5.83299,5.43601 -7.10995,2.76019 -0.20663,-0.66067 -0.1681,-1.35378 -0.14844,-2.03572 0.0137,-0.39508 0.0376,-0.78738 0.0143,-1.18224 5.10253,-3.2441 12.53284,-7.12271 0.6416,-0.49547 -0.0712,0.0397 0.1185,-0.11449 0.18925,-0.15506 6.65801,-3.81807 4.1756,-3.37012 6.94197,-3.83839 0.67799,-0.0223 1.35621,-0.006 2.03441,-0.006 0.68105,0.003 1.36209,0.003 2.04314,0.006 0.649,-0.116 1.60351,0.26611 2.15567,-0.137 1.74812,-1.90167 0.13345,-0.11598 -6.07507,3.4124 -0.0877,0.0499 0.16654,-0.11403 0.24996,-0.17083 0.18871,-0.12848 0.35105,-0.25039 0.5646,-0.3302 0.1441,-0.1226 0.32844,-0.28336 0.36656,-0.47378 0.13941,-2.96013 4.54008,-4.21016 7.40439,-4.35567 0.31513,0.007 0.16185,0.004 0.45983,0.008 0,0 -6.09487,4.45132 -6.09487,4.45132 l 0,0 c -0.27435,0.0185 -0.13457,0.004 -0.4192,0.0443 -3.40936,0.62897 8.57165,-3.49998 5.40773,-3.53525 0.008,0.33827 0.006,0.62661 -0.1652,0.93803 -0.14291,0.33192 -0.44843,0.48911 -0.76037,0.67129 -6.73253,3.93191 -4.1382,3.63534 -6.92904,3.9218 -0.75178,-0.0432 -1.50603,-0.0146 -2.25866,-0.0203 -0.67784,-6.3e-4 -1.35564,-0.0102 -2.03348,-0.008 -0.63862,0.004 -1.31239,-0.031 -1.91792,0.20028 -2.36036,1.14991 -0.0254,0.0179 6.05513,-3.51414 0.0688,-0.04 -0.14598,0.0641 -0.21496,0.1037 -2.23756,1.28585 -4.46716,2.58554 -6.70411,3.87245 -0.0608,0.035 -0.24862,0.12991 -0.18888,0.0931 2.04577,-1.26161 4.0985,-2.51191 6.14774,-3.76787 -0.0474,-0.017 -0.10012,-0.0786 -0.1423,-0.051 -0.0195,0.0127 0.0265,0.85709 -0.0421,0.92375 -0.0313,0.57781 -0.0761,1.16046 -0.0134,1.73744 0.82151,2.51409 0.12627,0.20905 -6.46739,3.73526 -0.0639,0.0342 0.0791,-0.12829 0.14177,-0.16462 2.21703,-1.28557 4.45674,-2.53163 6.68658,-3.79486 0.0645,-0.0366 0.26044,-0.14189 0.19643,-0.10445 -2.0787,1.21591 -4.16043,2.42664 -6.24065,3.63996 0.49346,-0.19995 0.52361,0.0901 0.50988,-0.55659 0.0145,-0.51765 0.2438,-1.05257 0.57851,-1.44046 2.1224,-2.38283 5.26272,-3.52805 8.11074,-4.90424 1.07129,-0.4722 2.17662,-0.86536 3.31209,-1.15417 1.77307,-0.44564 3.50337,-1.03327 5.2842,-1.4465 0.86959,-0.13743 1.50964,-0.24961 2.39063,-0.34256 1.23573,-0.13038 2.5322,-0.0886 3.7456,-0.3873 0.2153,-0.053 0.41077,-0.16712 0.61616,-0.25067 -2.0042,1.23734 -4.01853,2.45844 -6.01261,3.71202 -0.0596,0.0375 0.16183,-0.002 0.20264,-0.0596 0.0992,-0.13938 -0.0397,-0.52717 -0.0155,-0.69505 -0.26887,-0.29566 -0.9033,-0.22807 -1.25919,-0.4172 -1.30216,-0.34355 -2.63111,-0.59537 -3.85039,-1.19796 -2.52181,-1.05995 -5.12996,-1.91622 -7.7221,-2.78382 -2.97859,-0.96414 -5.94675,-1.98681 -8.71019,-3.48092 0,0 6.30221,-4.06141 6.30221,-4.06141 z"
         id="path3234-7-82-8"
         style="fill:#000000;stroke:#000000" />
    </g>
    <g
       id="g3236-0-0-4-70"
       transform="matrix(1.1189079,0,0,0.83528161,-46.042821,5.2780975)">
      <path
         transform="translate(0,308.2677)"
         inkscape:connector-curvature="0"
         d="m 293.60589,229.74751 c 3.31438,0.0534 6.62937,0.0515 9.9441,0.0539 3.91151,0.0243 7.82305,-0.003 11.73453,-0.0174 1.666,-0.0138 3.33202,-0.0275 4.99798,-0.0448 0.66082,-0.004 1.32166,-0.003 1.98246,-0.009 0.80539,0.008 1.61083,0.009 2.41625,0.0102 1.19277,-0.003 2.38547,0.007 3.57821,0.0137 1.64748,0.002 3.29497,0.002 4.94245,-0.003 0.91467,-0.004 1.82931,-0.0156 2.74399,-0.0174 0.75969,0.003 1.51937,0.003 2.27905,0.002 0.65048,-0.004 1.30097,-5.6e-4 1.95145,-0.004 0.75002,0.002 1.50003,0.005 2.25005,0.007 0.56075,-0.004 1.12152,-0.006 1.68226,-0.0112 0,0 -6.10954,4.43884 -6.10954,4.43884 l 0,0 c -0.55049,-0.006 -1.10103,-0.007 -1.65154,-0.0112 -0.75609,0.002 -1.51218,0.005 -2.26827,0.007 -0.647,-0.003 -1.294,0 -1.94099,-0.004 -0.76193,-3.1e-4 -1.52386,-9.7e-4 -2.28579,0.002 -0.8987,-0.002 -1.79737,-0.013 -2.69606,-0.0174 -1.64493,-0.005 -3.28986,-0.005 -4.93479,-0.003 -1.20535,0.006 -2.41066,0.0171 -3.61604,0.0137 -0.81475,0.001 -1.62952,0.002 -2.44424,0.0102 -0.65235,-0.006 -1.30474,-0.005 -1.9571,-0.009 -1.62481,-0.0175 -3.24967,-0.031 -4.87452,-0.0449 -3.89547,-0.0145 -7.79099,-0.0419 -11.68649,-0.0174 -3.36419,0.002 -6.72862,10e-4 -10.09248,0.0539 0,0 6.05507,-4.39926 6.05507,-4.39926 z"
         id="path3230-6-0-8-4"
         style="fill:#000000;stroke:#000000" />
      <path
         transform="translate(0,308.2677)"
         inkscape:connector-curvature="0"
         d="m 330.41878,222.64237 c 2.65303,1.52332 5.55751,2.49683 8.45546,3.43094 2.62552,0.90253 5.30898,1.68327 7.87108,2.75941 1.22356,0.5477 2.54564,0.74778 3.83238,1.08226 0.72813,0.14398 1.29133,0.25811 1.64925,0.94506 1.17576,3.31705 -4.34103,4.11398 -6.59398,5.49127 -2.29939,0.0775 -4.56228,0.32139 -6.82794,0.71131 -1.73502,0.61264 -3.52109,1.03844 -5.28631,1.53949 -1.13251,0.31573 -2.21336,0.76225 -3.26397,1.28533 -2.31418,1.21799 -5.3743,3.01942 5.33709,-3.09851 0.22012,-0.12572 -0.42101,0.28439 -0.61374,0.44905 -0.34876,0.27126 -0.55442,0.62259 -0.74095,1.01028 -0.076,0.39238 -0.0115,0.74567 -0.28748,1.07208 -0.23258,0.17633 -17.17322,9.73429 -0.61741,0.32965 0.0547,-0.0311 -0.11392,0.0536 -0.17122,0.0797 -7.05459,3.20847 -5.83299,5.43601 -7.10995,2.76019 -0.20663,-0.66067 -0.1681,-1.35378 -0.14844,-2.03572 0.0137,-0.39508 0.0376,-0.78738 0.0143,-1.18224 5.10253,-3.2441 12.53284,-7.12271 0.6416,-0.49547 -0.0712,0.0397 0.1185,-0.11449 0.18925,-0.15506 6.65801,-3.81807 4.1756,-3.37012 6.94197,-3.83839 0.67799,-0.0223 1.35621,-0.006 2.03441,-0.006 0.68105,0.003 1.36209,0.003 2.04314,0.006 0.649,-0.116 1.60351,0.26611 2.15567,-0.137 1.74812,-1.90167 0.13345,-0.11598 -6.07507,3.4124 -0.0877,0.0499 0.16654,-0.11403 0.24996,-0.17083 0.18871,-0.12848 0.35105,-0.25039 0.5646,-0.3302 0.1441,-0.1226 0.32844,-0.28336 0.36656,-0.47378 0.13941,-2.96013 4.54008,-4.21016 7.40439,-4.35567 0.31513,0.007 0.16185,0.004 0.45983,0.008 0,0 -6.09487,4.45132 -6.09487,4.45132 l 0,0 c -0.27435,0.0185 -0.13457,0.004 -0.4192,0.0443 -3.40936,0.62897 8.57165,-3.49998 5.40773,-3.53525 0.008,0.33827 0.006,0.62661 -0.1652,0.93803 -0.14291,0.33192 -0.44843,0.48911 -0.76037,0.67129 -6.73253,3.93191 -4.1382,3.63534 -6.92904,3.9218 -0.75178,-0.0432 -1.50603,-0.0146 -2.25866,-0.0203 -0.67784,-6.3e-4 -1.35564,-0.0102 -2.03348,-0.008 -0.63862,0.004 -1.31239,-0.031 -1.91792,0.20028 -2.36036,1.14991 -0.0254,0.0179 6.05513,-3.51414 0.0688,-0.04 -0.14598,0.0641 -0.21496,0.1037 -2.23756,1.28585 -4.46716,2.58554 -6.70411,3.87245 -0.0608,0.035 -0.24862,0.12991 -0.18888,0.0931 2.04577,-1.26161 4.0985,-2.51191 6.14774,-3.76787 -0.0474,-0.017 -0.10012,-0.0786 -0.1423,-0.051 -0.0195,0.0127 0.0265,0.85709 -0.0421,0.92375 -0.0313,0.57781 -0.0761,1.16046 -0.0134,1.73744 0.82151,2.51409 0.12627,0.20905 -6.46739,3.73526 -0.0639,0.0342 0.0791,-0.12829 0.14177,-0.16462 2.21703,-1.28557 4.45674,-2.53163 6.68658,-3.79486 0.0645,-0.0366 0.26044,-0.14189 0.19643,-0.10445 -2.0787,1.21591 -4.16043,2.42664 -6.24065,3.63996 0.49346,-0.19995 0.52361,0.0901 0.50988,-0.55659 0.0145,-0.51765 0.2438,-1.05257 0.57851,-1.44046 2.1224,-2.38283 5.26272,-3.52805 8.11074,-4.90424 1.07129,-0.4722 2.17662,-0.86536 3.31209,-1.15417 1.77307,-0.44564 3.50337,-1.03327 5.2842,-1.4465 0.86959,-0.13743 1.50964,-0.24961 2.39063,-0.34256 1.23573,-0.13038 2.5322,-0.0886 3.7456,-0.3873 0.2153,-0.053 0.41077,-0.16712 0.61616,-0.25067 -2.0042,1.23734 -4.01853,2.45844 -6.01261,3.71202 -0.0596,0.0375 0.16183,-0.002 0.20264,-0.0596 0.0992,-0.13938 -0.0397,-0.52717 -0.0155,-0.69505 -0.26887,-0.29566 -0.9033,-0.22807 -1.25919,-0.4172 -1.30216,-0.34355 -2.63111,-0.59537 -3.85039,-1.19796 -2.52181,-1.05995 -5.12996,-1.91622 -7.7221,-2.78382 -2.97859,-0.96414 -5.94675,-1.98681 -8.71019,-3.48092 0,0 6.30221,-4.06141 6.30221,-4.06141 z"
         id="path3234-7-82-8-25"
         style="fill:#000000;stroke:#000000" />
    </g>
    <text
       xml:space="preserve"
       style="font-size:12px;font-style:normal;font-variant:normal;font-weight:normal;font-stretch:normal;text-align:start;line-height:125%;letter-spacing:0px;word-spacing:0px;writing-mode:lr-tb;text-anchor:start;fill:#aa4400;fill-opacity:1;stroke:none;font-family:Arial;-inkscape-font-specification:Arial"
       x="35"
       y="457.36218"
       id="text3322-2-5"
       sodipodi:linespacing="125%"><tspan
         sodipodi:role="line"
         id="tspan3324-2-9"
         x="35"
         y="457.36218">New HTML</tspan></text>
    <text
       xml:space="preserve"
       style="font-size:12px;font-style:normal;font-variant:normal;font-weight:normal;font-stretch:normal;text-align:start;line-height:125%;letter-spacing:0px;word-spacing:0px;writing-mode:lr-tb;text-anchor:start;fill:#aa4400;fill-opacity:1;stroke:none;font-family:Arial;-inkscape-font-specification:Arial"
       x="270"
       y="487.36218"
       id="text3322-2-9"
       sodipodi:linespacing="125%"><tspan
         sodipodi:role="line"
         id="tspan3324-2-6"
         x="270"
         y="487.36218">Annotated DOM</tspan></text>
    <text
       xml:space="preserve"
       style="font-size:20px;font-style:normal;font-weight:normal;line-height:125%;letter-spacing:0px;word-spacing:0px;fill:#000000;fill-opacity:1;stroke:none;font-family:Sans"
       x="380"
       y="442.36218"
       id="text3041-2-5"
       sodipodi:linespacing="125%"><tspan
         sodipodi:role="line"
         id="tspan3043-4-4"
         x="380"
         y="442.36218"
         style="font-size:16px;font-style:normal;font-variant:normal;font-weight:bold;font-stretch:normal;font-family:Monospace;-inkscape-font-specification:Monospace Bold">Selective Serializer</tspan><tspan
         sodipodi:role="line"
         x="380"
         y="462.36218"
         style="font-size:16px;font-style:normal;font-variant:normal;font-weight:bold;font-stretch:normal;font-family:Monospace;-inkscape-font-specification:Monospace Bold"
         id="tspan3796" /></text>
    <text
       xml:space="preserve"
       style="font-size:14px;font-style:normal;font-weight:normal;line-height:125%;letter-spacing:0px;word-spacing:0px;fill:#000000;fill-opacity:1;stroke:none;font-family:Sans"
       x="380"
       y="462.36218"
       id="text3798"
       sodipodi:linespacing="125%"><tspan
         sodipodi:role="line"
         id="tspan3800"
         x="380"
         y="462.36218"
         style="font-size:12px">Unmodified =&gt; emit orig. WT</tspan><tspan
         sodipodi:role="line"
         x="380"
         y="477.36218"
         id="tspan3802"
         style="font-size:12px">Modified      =&gt; convert to WT</tspan></text>
    <g
       id="g3236-0-0-4-5"
       transform="matrix(0.66016693,0,0,0.83528161,403.94141,2.9753221)">
      <path
         transform="translate(0,308.2677)"
         inkscape:connector-curvature="0"
         d="m 293.60589,229.74751 c 3.31438,0.0534 6.62937,0.0515 9.9441,0.0539 3.91151,0.0243 7.82305,-0.003 11.73453,-0.0174 1.666,-0.0138 3.33202,-0.0275 4.99798,-0.0448 0.66082,-0.004 1.32166,-0.003 1.98246,-0.009 0.80539,0.008 1.61083,0.009 2.41625,0.0102 1.19277,-0.003 2.38547,0.007 3.57821,0.0137 1.64748,0.002 3.29497,0.002 4.94245,-0.003 0.91467,-0.004 1.82931,-0.0156 2.74399,-0.0174 0.75969,0.003 1.51937,0.003 2.27905,0.002 0.65048,-0.004 1.30097,-5.6e-4 1.95145,-0.004 0.75002,0.002 1.50003,0.005 2.25005,0.007 0.56075,-0.004 1.12152,-0.006 1.68226,-0.0112 0,0 -6.10954,4.43884 -6.10954,4.43884 l 0,0 c -0.55049,-0.006 -1.10103,-0.007 -1.65154,-0.0112 -0.75609,0.002 -1.51218,0.005 -2.26827,0.007 -0.647,-0.003 -1.294,0 -1.94099,-0.004 -0.76193,-3.1e-4 -1.52386,-9.7e-4 -2.28579,0.002 -0.8987,-0.002 -1.79737,-0.013 -2.69606,-0.0174 -1.64493,-0.005 -3.28986,-0.005 -4.93479,-0.003 -1.20535,0.006 -2.41066,0.0171 -3.61604,0.0137 -0.81475,0.001 -1.62952,0.002 -2.44424,0.0102 -0.65235,-0.006 -1.30474,-0.005 -1.9571,-0.009 -1.62481,-0.0175 -3.24967,-0.031 -4.87452,-0.0449 -3.89547,-0.0145 -7.79099,-0.0419 -11.68649,-0.0174 -3.36419,0.002 -6.72862,10e-4 -10.09248,0.0539 0,0 6.05507,-4.39926 6.05507,-4.39926 z"
         id="path3230-6-0-8-0"
         style="fill:#000000;stroke:#000000" />
      <path
         transform="translate(0,308.2677)"
         inkscape:connector-curvature="0"
         d="m 330.41878,222.64237 c 2.65303,1.52332 5.55751,2.49683 8.45546,3.43094 2.62552,0.90253 5.30898,1.68327 7.87108,2.75941 1.22356,0.5477 2.54564,0.74778 3.83238,1.08226 0.72813,0.14398 1.29133,0.25811 1.64925,0.94506 1.17576,3.31705 -4.34103,4.11398 -6.59398,5.49127 -2.29939,0.0775 -4.56228,0.32139 -6.82794,0.71131 -1.73502,0.61264 -3.52109,1.03844 -5.28631,1.53949 -1.13251,0.31573 -2.21336,0.76225 -3.26397,1.28533 -2.31418,1.21799 -5.3743,3.01942 5.33709,-3.09851 0.22012,-0.12572 -0.42101,0.28439 -0.61374,0.44905 -0.34876,0.27126 -0.55442,0.62259 -0.74095,1.01028 -0.076,0.39238 -0.0115,0.74567 -0.28748,1.07208 -0.23258,0.17633 -17.17322,9.73429 -0.61741,0.32965 0.0547,-0.0311 -0.11392,0.0536 -0.17122,0.0797 -7.05459,3.20847 -5.83299,5.43601 -7.10995,2.76019 -0.20663,-0.66067 -0.1681,-1.35378 -0.14844,-2.03572 0.0137,-0.39508 0.0376,-0.78738 0.0143,-1.18224 5.10253,-3.2441 12.53284,-7.12271 0.6416,-0.49547 -0.0712,0.0397 0.1185,-0.11449 0.18925,-0.15506 6.65801,-3.81807 4.1756,-3.37012 6.94197,-3.83839 0.67799,-0.0223 1.35621,-0.006 2.03441,-0.006 0.68105,0.003 1.36209,0.003 2.04314,0.006 0.649,-0.116 1.60351,0.26611 2.15567,-0.137 1.74812,-1.90167 0.13345,-0.11598 -6.07507,3.4124 -0.0877,0.0499 0.16654,-0.11403 0.24996,-0.17083 0.18871,-0.12848 0.35105,-0.25039 0.5646,-0.3302 0.1441,-0.1226 0.32844,-0.28336 0.36656,-0.47378 0.13941,-2.96013 4.54008,-4.21016 7.40439,-4.35567 0.31513,0.007 0.16185,0.004 0.45983,0.008 0,0 -6.09487,4.45132 -6.09487,4.45132 l 0,0 c -0.27435,0.0185 -0.13457,0.004 -0.4192,0.0443 -3.40936,0.62897 8.57165,-3.49998 5.40773,-3.53525 0.008,0.33827 0.006,0.62661 -0.1652,0.93803 -0.14291,0.33192 -0.44843,0.48911 -0.76037,0.67129 -6.73253,3.93191 -4.1382,3.63534 -6.92904,3.9218 -0.75178,-0.0432 -1.50603,-0.0146 -2.25866,-0.0203 -0.67784,-6.3e-4 -1.35564,-0.0102 -2.03348,-0.008 -0.63862,0.004 -1.31239,-0.031 -1.91792,0.20028 -2.36036,1.14991 -0.0254,0.0179 6.05513,-3.51414 0.0688,-0.04 -0.14598,0.0641 -0.21496,0.1037 -2.23756,1.28585 -4.46716,2.58554 -6.70411,3.87245 -0.0608,0.035 -0.24862,0.12991 -0.18888,0.0931 2.04577,-1.26161 4.0985,-2.51191 6.14774,-3.76787 -0.0474,-0.017 -0.10012,-0.0786 -0.1423,-0.051 -0.0195,0.0127 0.0265,0.85709 -0.0421,0.92375 -0.0313,0.57781 -0.0761,1.16046 -0.0134,1.73744 0.82151,2.51409 0.12627,0.20905 -6.46739,3.73526 -0.0639,0.0342 0.0791,-0.12829 0.14177,-0.16462 2.21703,-1.28557 4.45674,-2.53163 6.68658,-3.79486 0.0645,-0.0366 0.26044,-0.14189 0.19643,-0.10445 -2.0787,1.21591 -4.16043,2.42664 -6.24065,3.63996 0.49346,-0.19995 0.52361,0.0901 0.50988,-0.55659 0.0145,-0.51765 0.2438,-1.05257 0.57851,-1.44046 2.1224,-2.38283 5.26272,-3.52805 8.11074,-4.90424 1.07129,-0.4722 2.17662,-0.86536 3.31209,-1.15417 1.77307,-0.44564 3.50337,-1.03327 5.2842,-1.4465 0.86959,-0.13743 1.50964,-0.24961 2.39063,-0.34256 1.23573,-0.13038 2.5322,-0.0886 3.7456,-0.3873 0.2153,-0.053 0.41077,-0.16712 0.61616,-0.25067 -2.0042,1.23734 -4.01853,2.45844 -6.01261,3.71202 -0.0596,0.0375 0.16183,-0.002 0.20264,-0.0596 0.0992,-0.13938 -0.0397,-0.52717 -0.0155,-0.69505 -0.26887,-0.29566 -0.9033,-0.22807 -1.25919,-0.4172 -1.30216,-0.34355 -2.63111,-0.59537 -3.85039,-1.19796 -2.52181,-1.05995 -5.12996,-1.91622 -7.7221,-2.78382 -2.97859,-0.96414 -5.94675,-1.98681 -8.71019,-3.48092 0,0 6.30221,-4.06141 6.30221,-4.06141 z"
         id="path3234-7-82-8-0"
         style="fill:#000000;stroke:#000000" />
    </g>
    <text
       xml:space="preserve"
       style="font-size:12px;font-style:normal;font-variant:normal;font-weight:normal;font-stretch:normal;text-align:start;line-height:125%;letter-spacing:0px;word-spacing:0px;writing-mode:lr-tb;text-anchor:start;fill:#0000ff;fill-opacity:1;stroke:none;font-family:Arial;-inkscape-font-specification:Arial"
       x="645"
       y="457.36218"
       id="text3322-1"
       sodipodi:linespacing="125%"><tspan
         sodipodi:role="line"
         id="tspan3324-0"
         x="645"
         y="457.36218">Wikitext</tspan></text>
    <text
       xml:space="preserve"
       style="font-size:16px;font-style:normal;font-weight:normal;line-height:125%;letter-spacing:0px;word-spacing:0px;fill:#000000;fill-opacity:1;stroke:none;font-family:Sans"
       x="160"
       y="352.36218"
       id="text3454-2"
       sodipodi:linespacing="125%"><tspan
         sodipodi:role="line"
         x="160"
         y="352.36218"
         id="tspan3458-5"
         style="font-size:16px"><tspan
   id="tspan3507-1"
   style="font-size:20px"><tspan
     style="font-weight:bold"
     id="tspan3513-7">  Serializer Environment: </tspan></tspan>Wiki config, Parsoid config, Page </tspan></text>
    <text
       xml:space="preserve"
       style="font-size:14px;font-style:normal;font-weight:normal;line-height:125%;letter-spacing:0px;word-spacing:0px;fill:#000000;fill-opacity:1;stroke:none;font-family:Sans"
       x="-247.48737"
       y="547.11475"
       id="text3931"
       sodipodi:linespacing="125%"
       transform="translate(0,308.2677)"><tspan
         sodipodi:role="line"
         id="tspan3933" /></text>
    <text
       xml:space="preserve"
       style="font-size:14px;font-style:normal;font-variant:normal;font-weight:normal;font-stretch:normal;line-height:125%;letter-spacing:0px;word-spacing:0px;fill:#000000;fill-opacity:1;stroke:none;font-family:Monospace;-inkscape-font-specification:Monospace"
       x="-126.26907"
       y="430.9472"
       id="text3977"
       sodipodi:linespacing="125%"
       transform="translate(0,308.2677)"><tspan
         sodipodi:role="line"
         id="tspan3979" /></text>
  </g>
</svg>
